<?xml version="1.0" standalone="no"?>
<!DOCTYPE svg PUBLIC "-//W3C//DTD SVG 20010904//EN"
 "http://www.w3.org/TR/2001/REC-SVG-20010904/DTD/svg10.dtd">
<svg version="1.0" xmlns="http://www.w3.org/2000/svg"
 width="500.000000pt" height="500.000000pt" viewBox="0 0 500.000000 500.000000"
 preserveAspectRatio="xMidYMid meet">
<metadata>
Created by potrace 1.11, written by Peter Selinger 2001-2013
</metadata>
<g transform="translate(0.000000,500.000000) scale(0.100000,-0.100000)"
fill="#000000" stroke="none">
<path d="M2250 4624 c-130 -16 -280 -48 -385 -81 -44 -14 -82 -25 -85 -25 -3
0 -9 -3 -15 -8 -5 -4 -27 -13 -49 -20 -79 -25 -296 -140 -418 -221 -168 -112
-393 -325 -503 -479 -22 -30 -42 -57 -45 -60 -3 -3 -21 -30 -40 -60 -19 -30
-37 -57 -40 -60 -6 -6 -31 -52 -85 -160 -62 -124 -71 -145 -108 -257 -19 -56
-36 -100 -39 -98 -2 2 -4 -4 -5 -13 0 -9 -3 -30 -7 -47 -32 -161 -43 -205 -51
-198 -5 4 -4 1 3 -8 6 -9 10 -18 8 -20 -10 -10 -26 -188 -26 -298 -1 -43 -6
-81 -13 -90 -9 -12 -9 -13 0 -7 9 5 13 -1 14 -18 1 -14 2 -32 3 -38 1 -7 -3
-19 -8 -27 -8 -11 -8 -13 2 -7 9 5 12 -4 13 -36 1 -24 3 -52 4 -63 2 -11 5
-41 8 -68 2 -26 7 -50 10 -54 12 -11 8 -24 -5 -18 -7 4 -6 1 2 -7 8 -7 16 -22
18 -33 1 -11 7 -38 12 -60 6 -22 12 -49 14 -60 3 -20 9 -39 27 -83 6 -17 6
-21 -2 -16 -6 3 -4 -4 4 -17 9 -13 23 -44 32 -69 25 -68 30 -78 76 -175 24
-49 48 -93 53 -97 7 -5 6 -11 -4 -18 -13 -8 -12 -10 3 -10 9 0 17 -5 17 -11 0
-5 -4 -8 -9 -4 -5 3 -12 1 -15 -4 -3 -4 4 -8 17 -7 13 1 21 -4 20 -11 -2 -7 2
-13 7 -13 6 0 10 -7 10 -16 0 -9 -5 -12 -12 -8 -7 4 -8 3 -4 -4 4 -6 13 -9 21
-5 9 3 15 -1 15 -11 0 -9 3 -16 8 -16 4 0 13 -9 20 -21 11 -17 11 -20 0 -14
-7 4 -1 -4 14 -18 14 -15 29 -36 33 -47 4 -11 11 -18 16 -15 8 6 14 -16 10
-38 -1 -5 2 -6 7 -3 5 3 22 -11 38 -30 16 -20 35 -42 42 -50 7 -8 11 -18 7
-24 -3 -6 1 -7 9 -4 14 6 21 -5 17 -28 0 -5 3 -7 7 -5 15 4 94 -81 86 -94 -4
-8 -3 -10 5 -5 6 4 19 2 27 -5 12 -10 12 -14 2 -21 -8 -6 -4 -7 11 -3 20 6 23
4 18 -9 -4 -10 -3 -15 3 -11 12 7 42 -20 33 -29 -4 -3 -1 -6 6 -6 21 0 72 -41
65 -52 -4 -7 -2 -8 4 -4 11 7 112 -61 112 -76 0 -4 5 -8 10 -8 6 0 22 -8 36
-17 25 -16 25 -17 8 -30 -10 -7 -13 -13 -8 -13 6 0 15 5 20 10 15 15 64 -8 64
-29 0 -13 2 -13 9 -2 6 9 11 10 15 2 4 -6 22 -18 41 -27 19 -9 32 -21 28 -27
-3 -5 -1 -7 5 -3 16 10 64 -12 56 -26 -4 -6 -3 -8 4 -4 5 3 13 0 15 -6 4 -10
6 -10 6 0 1 7 6 10 11 7 8 -5 7 -12 -2 -22 -12 -15 -11 -15 11 -2 18 11 25 11
28 1 3 -6 10 -9 16 -5 6 4 8 0 5 -9 -4 -8 0 -15 8 -15 7 0 11 4 8 9 -8 13 10
9 34 -8 12 -8 22 -13 22 -9 0 3 13 -1 29 -9 16 -9 31 -12 35 -9 3 4 6 1 6 -6
0 -7 4 -10 9 -6 5 3 12 1 16 -4 3 -6 12 -8 19 -5 7 3 20 -1 27 -9 8 -7 20 -12
28 -9 7 2 17 -2 22 -9 7 -12 9 -11 9 1 1 12 3 11 11 -3 7 -12 7 -22 0 -30 -7
-9 -5 -13 8 -13 15 0 17 5 11 21 -7 19 -5 21 21 17 16 -2 29 -7 29 -11 0 -3
19 -7 42 -9 23 -1 45 -6 48 -11 3 -4 13 -7 23 -5 11 1 15 -2 10 -9 -5 -9 -3
-9 8 0 9 7 20 8 28 3 8 -4 20 -6 27 -3 7 2 22 0 33 -7 15 -7 21 -7 21 0 0 7 6
8 18 1 9 -5 28 -8 42 -7 14 1 34 -2 45 -8 27 -14 46 -16 39 -5 -8 14 60 11 75
-3 8 -7 11 -8 8 -2 -4 7 19 11 71 12 94 1 168 8 181 16 5 3 11 0 14 -6 4 -10
7 -11 18 0 7 6 23 12 35 12 12 0 25 -6 27 -12 4 -9 6 -8 6 2 1 9 10 16 21 17
13 1 18 -2 13 -10 -3 -7 2 -5 13 5 22 19 72 26 93 14 9 -6 12 -5 8 1 -4 6 0
14 9 17 23 9 36 7 30 -3 -4 -5 3 -7 15 -4 15 4 17 8 8 14 -8 5 2 10 27 15 21
3 44 9 49 13 24 13 36 9 31 -12 -3 -14 -1 -13 6 5 12 27 48 46 48 25 0 -7 5
-4 10 5 9 14 58 32 76 28 4 -1 10 3 13 8 8 12 103 54 96 42 -3 -6 1 -7 9 -4 9
3 14 9 12 13 -2 3 21 18 50 32 29 14 51 22 49 19 -2 -4 2 -7 9 -7 8 0 12 6 9
13 -3 9 2 12 16 9 15 -3 18 0 14 12 -4 10 -2 14 4 10 6 -4 16 0 23 8 7 8 19
15 26 15 8 0 14 4 14 8 0 9 45 34 65 38 6 1 15 3 20 4 6 1 14 2 18 1 5 -1 6 3
2 9 -4 6 -12 7 -19 3 -7 -4 -3 0 8 10 10 10 25 16 33 13 7 -3 12 -2 12 2 -3
20 2 32 15 32 8 0 24 11 37 25 13 13 28 25 32 25 4 0 21 14 37 32 26 28 31 30
47 17 16 -13 17 -12 4 3 -11 15 -11 19 3 24 9 3 16 12 16 20 0 8 5 14 10 14 6
0 38 28 70 62 47 49 60 59 61 43 0 -15 2 -16 6 -5 3 8 11 19 17 23 7 6 4 7 -6
3 -21 -6 -24 9 -5 21 8 4 32 33 54 63 22 30 47 61 56 69 10 7 17 20 17 28 0 8
6 13 13 10 6 -2 11 -10 9 -16 -1 -7 2 -10 8 -6 8 5 8 11 0 20 -7 8 -9 19 -5
26 6 8 9 8 15 -1 5 -8 9 -7 13 5 4 9 3 13 -3 10 -6 -3 -10 -4 -10 -2 0 10 83
142 91 145 5 2 7 8 3 13 -3 5 1 12 10 15 8 3 12 12 10 19 -3 7 0 16 7 21 8 5
10 3 4 -6 -5 -8 -4 -11 3 -6 6 4 9 12 7 19 -7 17 40 109 50 100 4 -5 5 -3 1 4
-8 15 23 95 35 87 5 -3 6 1 4 8 -8 19 39 140 50 131 4 -5 5 -3 1 4 -4 7 0 38
8 70 8 32 17 69 20 83 9 50 19 85 28 97 5 7 4 13 -3 15 -8 3 -4 12 12 27 19
18 20 21 5 15 -16 -6 -18 -4 -13 10 4 10 7 24 7 32 0 9 5 12 13 8 9 -5 9 -4 0
6 -9 9 -9 19 -2 33 6 11 7 17 1 14 -5 -4 -7 4 -4 18 2 15 9 22 16 18 8 -5 8
-3 0 8 -6 8 -9 30 -8 49 7 108 2 390 -7 390 -3 0 -6 17 -7 38 -1 20 -11 80
-23 132 -11 52 -22 104 -23 115 -2 11 -6 27 -9 35 -7 20 -28 88 -31 103 -15
70 -150 359 -213 454 -21 32 -40 63 -43 68 -3 6 -21 33 -40 59 -19 27 -33 54
-32 60 2 6 1 8 -3 4 -7 -6 -24 12 -80 82 -44 56 -215 220 -289 279 -225 178
-492 315 -760 390 -57 16 -117 32 -133 35 -198 36 -192 35 -408 40 -123 2
-227 -1 -295 -10z"/>
<path d="M266 2158 c3 -5 10 -6 15 -3 13 9 11 12 -6 12 -8 0 -12 -4 -9 -9z"/>
<path d="M4536 1738 c3 -5 10 -6 15 -3 13 9 11 12 -6 12 -8 0 -12 -4 -9 -9z"/>
<path d="M470 1696 c0 -2 8 -10 18 -17 15 -13 16 -12 3 4 -13 16 -21 21 -21
13z"/>
<path d="M509 1583 c-13 -16 -12 -17 4 -4 9 7 17 15 17 17 0 8 -8 3 -21 -13z"/>
<path d="M576 1517 c3 -10 9 -15 12 -12 3 3 0 11 -7 18 -10 9 -11 8 -5 -6z"/>
<path d="M555 1409 c-4 -6 -5 -12 -2 -15 2 -3 7 2 10 11 7 17 1 20 -8 4z"/>
<path d="M4325 1320 c-3 -6 1 -7 9 -4 18 7 21 14 7 14 -6 0 -13 -4 -16 -10z"/>
<path d="M4313 1235 c0 -8 4 -12 9 -9 5 3 6 10 3 15 -9 13 -12 11 -12 -6z"/>
<path d="M4219 1193 c-12 -16 -12 -17 2 -6 9 7 19 10 22 6 4 -3 7 -1 7 5 0 17
-16 15 -31 -5z"/>
<path d="M4270 1199 c0 -5 5 -7 10 -4 6 3 10 8 10 11 0 2 -4 4 -10 4 -5 0 -10
-5 -10 -11z"/>
<path d="M4191 1147 c-13 -21 -12 -21 5 -5 10 10 16 20 13 22 -3 3 -11 -5 -18
-17z"/>
<path d="M4295 1160 c-3 -5 -1 -10 4 -10 6 0 11 5 11 10 0 6 -2 10 -4 10 -3 0
-8 -4 -11 -10z"/>
<path d="M793 1147 c0 -8 6 -14 14 -14 9 0 10 4 2 14 -6 7 -12 13 -14 13 -1 0
-2 -6 -2 -13z"/>
<path d="M815 1100 c-3 -5 -1 -10 4 -10 6 0 11 5 11 10 0 6 -2 10 -4 10 -3 0
-8 -4 -11 -10z"/>
<path d="M4160 1100 c-9 -6 -10 -10 -3 -10 6 0 15 5 18 10 8 12 4 12 -15 0z"/>
<path d="M836 1007 c3 -10 9 -15 12 -12 3 3 0 11 -7 18 -10 9 -11 8 -5 -6z"/>
<path d="M913 1005 c0 -8 4 -12 9 -9 5 3 6 10 3 15 -9 13 -12 11 -12 -6z"/>
<path d="M954 976 c1 -8 5 -18 8 -22 4 -3 5 1 4 10 -1 8 -5 18 -8 22 -4 3 -5
-1 -4 -10z"/>
<path d="M4025 960 c-3 -6 1 -7 9 -4 18 7 21 14 7 14 -6 0 -13 -4 -16 -10z"/>
<path d="M3895 840 c-2 -3 5 -6 15 -7 11 -1 22 2 24 5 3 4 -4 8 -15 8 -11 0
-22 -3 -24 -6z"/>
<path d="M1133 791 c0 -11 5 -18 9 -15 4 3 5 11 1 19 -7 21 -12 19 -10 -4z"/>
<path d="M1173 765 c0 -8 4 -12 9 -9 5 3 6 10 3 15 -9 13 -12 11 -12 -6z"/>
<path d="M1205 760 c3 -5 8 -10 11 -10 2 0 4 5 4 10 0 6 -5 10 -11 10 -5 0 -7
-4 -4 -10z"/>
<path d="M3815 751 c-3 -5 -2 -12 3 -15 5 -3 9 1 9 9 0 17 -3 19 -12 6z"/>
<path d="M1221 741 c-10 -7 -7 -9 12 -8 14 1 23 5 20 10 -6 9 -15 9 -32 -2z"/>
<path d="M3686 678 c3 -5 10 -6 15 -3 13 9 11 12 -6 12 -8 0 -12 -4 -9 -9z"/>
<path d="M3696 647 c3 -10 9 -15 12 -12 3 3 0 11 -7 18 -10 9 -11 8 -5 -6z"/>
<path d="M3640 646 c0 -2 7 -7 16 -10 8 -3 12 -2 9 4 -6 10 -25 14 -25 6z"/>
<path d="M1395 620 c-3 -5 -1 -10 4 -10 6 0 11 5 11 10 0 6 -2 10 -4 10 -3 0
-8 -4 -11 -10z"/>
<path d="M3595 620 c-3 -6 1 -7 9 -4 18 7 21 14 7 14 -6 0 -13 -4 -16 -10z"/>
<path d="M1429 603 c-13 -16 -12 -17 4 -4 16 13 21 21 13 21 -2 0 -10 -8 -17
-17z"/>
<path d="M3835 601 c-3 -5 -2 -12 3 -15 5 -3 9 1 9 9 0 17 -3 19 -12 6z"/>
<path d="M1468 578 c5 -5 16 -8 23 -6 8 3 3 7 -10 11 -17 4 -21 3 -13 -5z"/>
<path d="M1516 552 c-2 -4 4 -8 14 -8 10 0 16 4 14 8 -3 4 -9 8 -14 8 -5 0
-11 -4 -14 -8z"/>
<path d="M3372 521 c-11 -7 -11 -9 0 -14 9 -3 15 1 15 9 0 8 -1 14 -1 14 -1 0
-7 -4 -14 -9z"/>
<path d="M3430 519 c0 -5 5 -7 10 -4 6 3 10 8 10 11 0 2 -4 4 -10 4 -5 0 -10
-5 -10 -11z"/>
<path d="M1620 500 c-9 -6 -10 -10 -3 -10 6 0 15 5 18 10 8 12 4 12 -15 0z"/>
<path d="M1476 478 c3 -5 10 -6 15 -3 13 9 11 12 -6 12 -8 0 -12 -4 -9 -9z"/>
<path d="M1636 475 c-9 -26 -7 -32 5 -12 6 10 9 21 6 23 -2 3 -7 -2 -11 -11z"/>
<path d="M1696 473 c-6 -14 -5 -15 5 -6 7 7 10 15 7 18 -3 3 -9 -2 -12 -12z"/>
<path d="M3320 480 c-12 -7 -10 -9 8 -7 12 0 22 5 22 9 0 11 -12 10 -30 -2z"/>
<path d="M3590 480 c0 -5 5 -10 11 -10 5 0 7 5 4 10 -3 6 -8 10 -11 10 -2 0
-4 -4 -4 -10z"/>
<path d="M1782 444 c10 -10 20 -16 22 -13 3 3 -5 11 -17 18 -21 13 -21 12 -5
-5z"/>
<path d="M3227 447 c-3 -8 1 -14 8 -14 7 0 11 6 8 14 -3 7 -6 13 -8 13 -2 0
-5 -6 -8 -13z"/>
<path d="M1510 441 c0 -6 4 -13 10 -16 6 -3 7 1 4 9 -7 18 -14 21 -14 7z"/>
<path d="M3296 438 c3 -5 10 -6 15 -3 13 9 11 12 -6 12 -8 0 -12 -4 -9 -9z"/>
<path d="M3195 431 c-3 -5 -2 -12 3 -15 5 -3 9 1 9 9 0 17 -3 19 -12 6z"/>
<path d="M1735 420 c-3 -5 -1 -10 4 -10 6 0 11 5 11 10 0 6 -2 10 -4 10 -3 0
-8 -4 -11 -10z"/>
<path d="M3173 407 c0 -8 6 -14 14 -14 9 0 10 4 2 14 -6 7 -12 13 -14 13 -1 0
-2 -6 -2 -13z"/>
<path d="M3070 390 c0 -5 5 -10 11 -10 5 0 7 5 4 10 -3 6 -8 10 -11 10 -2 0
-4 -4 -4 -10z"/>
<path d="M3133 385 c0 -8 4 -12 9 -9 5 3 6 10 3 15 -9 13 -12 11 -12 -6z"/>
<path d="M1915 371 c-3 -5 -2 -12 3 -15 5 -3 9 1 9 9 0 17 -3 19 -12 6z"/>
<path d="M2028 373 c7 -3 16 -2 19 1 4 3 -2 6 -13 5 -11 0 -14 -3 -6 -6z"/>
<path d="M2904 364 c-18 -14 -18 -15 4 -4 12 6 22 13 22 15 0 8 -5 6 -26 -11z"/>
<path d="M2985 360 c-3 -6 1 -7 9 -4 18 7 21 14 7 14 -6 0 -13 -4 -16 -10z"/>
<path d="M2195 351 c-3 -5 0 -13 6 -17 7 -4 9 -3 5 4 -3 5 0 13 6 15 9 4 10 6
1 6 -6 1 -14 -3 -18 -8z"/>
<path d="M2140 340 c-9 -6 -10 -10 -3 -10 6 0 15 5 18 10 8 12 4 12 -15 0z"/>
<path d="M2690 341 c0 -6 4 -13 10 -16 6 -3 7 1 4 9 -7 18 -14 21 -14 7z"/>
<path d="M2835 340 c-16 -7 -17 -9 -3 -9 9 -1 20 4 23 9 7 11 7 11 -20 0z"/>
<path d="M2900 340 c-9 -6 -10 -10 -3 -10 6 0 15 5 18 10 8 12 4 12 -15 0z"/>
<path d="M2254 323 c1 -12 6 -26 11 -30 4 -5 5 -3 1 4 -3 6 2 17 11 23 16 10
16 11 1 6 -9 -3 -19 0 -22 7 -2 7 -4 2 -2 -10z"/>
<path d="M2427 327 c-3 -8 0 -14 7 -14 7 0 13 6 13 14 0 17 -13 17 -20 0z"/>
<path d="M2576 327 c3 -10 9 -15 12 -12 3 3 0 11 -7 18 -10 9 -11 8 -5 -6z"/>
<path d="M2630 331 c0 -7 -5 -9 -12 -5 -7 5 -8 3 -3 -5 5 -9 10 -10 18 -2 6 6
8 14 4 18 -4 3 -7 1 -7 -6z"/>
<path d="M2662 324 c10 -10 20 -16 22 -13 3 3 -5 11 -17 18 -21 13 -21 12 -5
-5z"/>
<path d="M2040 320 c-8 -5 -10 -10 -5 -10 6 0 17 5 25 10 8 5 11 10 5 10 -5 0
-17 -5 -25 -10z"/>
<path d="M2166 318 c3 -5 10 -6 15 -3 13 9 11 12 -6 12 -8 0 -12 -4 -9 -9z"/>
<path d="M2367 319 c7 -7 15 -10 18 -7 3 3 -2 9 -12 12 -14 6 -15 5 -6 -5z"/>
<path d="M2497 311 c-4 -17 -3 -21 5 -13 5 5 8 16 6 23 -3 8 -7 3 -11 -10z"/>
<path d="M2533 315 c0 -7 8 -10 19 -7 10 2 18 6 18 7 0 1 -8 5 -18 7 -11 3
-19 0 -19 -7z"/>
<path d="M2719 313 c-13 -16 -12 -17 4 -4 9 7 17 15 17 17 0 8 -8 3 -21 -13z"/>
<path d="M2475 309 c-4 -6 -5 -12 -2 -15 2 -3 7 2 10 11 7 17 1 20 -8 4z"/>
<path d="M3350 300 c0 -5 5 -10 11 -10 5 0 7 5 4 10 -3 6 -8 10 -11 10 -2 0
-4 -4 -4 -10z"/>
<path d="M2675 289 c-4 -6 -5 -12 -2 -15 2 -3 7 2 10 11 7 17 1 20 -8 4z"/>
<path d="M2190 201 c0 -6 4 -13 10 -16 6 -3 7 1 4 9 -7 18 -14 21 -14 7z"/>
</g>
</svg>
